# xmcd CD database file
#
# Track frame offsets:
#	150
#	22946
#	43467
#	57768
#	88996
#	104116
#	123944
#	152037
#	170052
#	186815
#	222357
#	276811
#
# Disc length: 3965 seconds
#
# Revision: 0
# Processed by: cddbd v1.5.1PL2 Copyright (c) Steve Scherf et al.
# Submitted via: CDex 1.51
#
DISCID=b10f7b0c
DTITLE=Pat Metheny - One Quiet Night
DYEAR=2003
DGENRE=Jazz
TTITLE0=One quiet Night
TTITLE1=Song for the boys
TTITLE2=Don't know why
TTITLE3=Another chance
TTITLE4=And time goes on
TTITLE5=My song
TTITLE6=Peace memory
TTITLE7=Ferry cross the Mersey
TTITLE8=Over on 4th street
TTITLE9=I will find the way
TTITLE10=North to south, East to West
TTITLE11=Last train home
EXTD=YEAR: 2003
EXTT0=
EXTT1=
EXTT2=
EXTT3=
EXTT4=
EXTT5=
EXTT6=
EXTT7=
EXTT8=
EXTT9=
EXTT10=
EXTT11=
PLAYORDER=
